<mxfile host="65bd71144e">
    <diagram id="Al1H9eT2hOA6GabFGMHh" name="第 1 页">
        <mxGraphModel dx="1080" dy="468" grid="1" gridSize="10" guides="1" tooltips="1" connect="1" arrows="1" fold="1" page="1" pageScale="1" pageWidth="827" pageHeight="1169" background="#ffffff" math="0" shadow="0">
            <root>
                <mxCell id="0"/>
                <mxCell id="1" parent="0"/>
                <mxCell id="5" value="" style="whiteSpace=wrap;html=1;aspect=fixed;strokeColor=#000000;fillColor=#FFFFFF;" vertex="1" parent="1">
                    <mxGeometry x="20" y="10" width="370" height="370" as="geometry"/>
                </mxCell>
                <mxCell id="2" value="Consistency 一致性" style="ellipse;whiteSpace=wrap;html=1;aspect=fixed;fillColor=#4D4D4D;opacity=80;strokeColor=#FFFFFF;fontColor=#FFFFFF;" vertex="1" parent="1">
                    <mxGeometry x="205" y="146" width="160" height="160" as="geometry"/>
                </mxCell>
                <mxCell id="3" value="Partition Tolarance&lt;br&gt;分区容忍性" style="ellipse;whiteSpace=wrap;html=1;aspect=fixed;fillColor=#B3B3B3;opacity=80;strokeColor=#FFFFFF;fontColor=#FFFFFF;" vertex="1" parent="1">
                    <mxGeometry x="125" y="60" width="160" height="160" as="geometry"/>
                </mxCell>
                <mxCell id="4" value="Availability 可用性" style="ellipse;whiteSpace=wrap;html=1;aspect=fixed;fillColor=#808080;opacity=80;strokeColor=#FFFFFF;fontColor=#FFFFFF;" vertex="1" parent="1">
                    <mxGeometry x="45" y="146" width="160" height="160" as="geometry"/>
                </mxCell>
                <mxCell id="6" value="&lt;font color=&quot;#ff3333&quot;&gt;AP&lt;/font&gt;" style="text;html=1;resizable=0;autosize=1;align=center;verticalAlign=middle;points=[];fillColor=none;strokeColor=none;rounded=0;fontColor=#000000;" vertex="1" parent="1">
                    <mxGeometry x="155" y="176" width="30" height="20" as="geometry"/>
                </mxCell>
                <mxCell id="7" value="&lt;font color=&quot;#ff3333&quot;&gt;CP&lt;/font&gt;" style="text;html=1;resizable=0;autosize=1;align=center;verticalAlign=middle;points=[];fillColor=none;strokeColor=none;rounded=0;fontColor=#000000;" vertex="1" parent="1">
                    <mxGeometry x="225" y="176" width="30" height="20" as="geometry"/>
                </mxCell>
            </root>
        </mxGraphModel>
    </diagram>
</mxfile>